<?xml version="1.0" encoding="UTF-8"?>
<svg width="360" height="360" version="1.1" viewBox="0 0 360 360" xmlns="http://www.w3.org/2000/svg" xmlns:cc="http://creativecommons.org/ns#" xmlns:dc="http://purl.org/dc/elements/1.1/" xmlns:rdf="http://www.w3.org/1999/02/22-rdf-syntax-ns#">
 <g fill="#98a76d">
  <circle cx="98.399" cy="92.493" r="3.8792"/>
  <circle cx="127.36" cy="105.02" r="3.2029"/>
  <circle cx="106.17" cy="116.33" r="5.1289"/>
  <circle cx="149.93" cy="114.87" r="3.6207"/>
  <circle cx="184.31" cy="106.01" r="3.977"/>
  <circle cx="126.64" cy="155.12" r="5.2277"/>
  <circle cx="148.83" cy="139.32" r="7.0871"/>
  <circle cx="146.86" cy="149.21" r="2.5595"/>
  <circle cx="209.64" cy="153.56" r="4.287"/>
  <circle cx="180.17" cy="183" r="3.0882"/>
  <circle cx="107.03" cy="216.47" r="2.5379"/>
  <circle cx="114.66" cy="211.6" r="5.8004"/>
  <circle cx="197.47" cy="179.88" r="3.8547"/>
  <circle cx="187.4" cy="203.09" r="6.7011"/>
  <circle cx="110.49" cy="231.51" r="3.0043"/>
  <circle cx="102.01" cy="268.63" r="4.6198"/>
  <circle cx="171.95" cy="215.74" r="6.3118"/>
  <circle cx="260.7" cy="206.87" r="1.7897"/>
  <circle cx="274.02" cy="210.52" r="1.9665"/>
  <circle cx="265" cy="215.68" r="7.155"/>
  <circle cx="297.5" cy="211.57" r="2.8514"/>
 </g>
 <g fill="#e39160">
  <circle cx="308.8" cy="174.05" r="3.1458"/>
  <circle cx="268.45" cy="167.44" r="1.1903"/>
  <circle cx="210.57" cy="255.12" r="3.3226"/>
  <circle cx="216.64" cy="308.5" r="1.7897"/>
  <circle cx="114.41" cy="311.35" r="2.5318"/>
  <circle cx="92.197" cy="318.41" r="1.3922"/>
  <circle cx="284.66" cy="82.488" r="3.835"/>
  <circle cx="197.32" cy="86.934" r="4.4756"/>
  <circle cx="121.92" cy="122.97" r="1.4339"/>
  <circle cx="113.13" cy="27.552" r="8.0186"/>
  <circle cx="83.504" cy="43.33" r="7.0245"/>
  <circle cx="30.54" cy="101.73" r="5.6225"/>
  <circle cx="16.05" cy="131.27" r="3.773"/>
  <circle cx="13.728" cy="164.87" r="2.9874"/>
  <circle cx="22.552" cy="171.79" r="6.6204"/>
  <circle cx="28.482" cy="149.97" r="3.9521"/>
  <circle cx="41.342" cy="131.56" r="6.3768"/>
  <circle cx="61.46" cy="78.62" r="10.101"/>
  <circle cx="92.854" cy="61.626" r="3.9864"/>
  <circle cx="119.11" cy="40.441" r="4.8956"/>
  <circle cx="150.5" cy="26.318" r="4.2952"/>
  <circle cx="161.69" cy="18.906" r="4.2952"/>
  <circle cx="181.54" cy="10.859" r="6.9634"/>
  <circle cx="154.28" cy="40.241" r="4.9623"/>
  <circle cx="136.85" cy="52.083" r="4.3453"/>
  <circle cx="98.36" cy="70.308" r="2.476"/>
  <circle cx="60.348" cy="104.36" r="2.6624"/>
  <circle cx="59.66" cy="113.98" r="5.4873"/>
  <circle cx="78.774" cy="84.549" r="5.8837"/>
  <circle cx="118.98" cy="68.186" r="2.3125"/>
  <circle cx="127.93" cy="74.866" r="3.7602"/>
  <circle cx="139.91" cy="79.995" r="7.2584"/>
  <circle cx="169.65" cy="47.666" r="9.9269"/>
  <circle cx="224.78" cy="31.423" r="5.2655"/>
  <circle cx="211.98" cy="38.611" r="7.3881"/>
  <circle cx="51.56" cy="147.39" r="6.7103"/>
  <circle cx="69.878" cy="160.68" r="3.9309"/>
  <circle cx="31.327" cy="191.78" r="4.5843"/>
  <circle cx="16.196" cy="204.34" r="2.4191"/>
  <circle cx="206.59" cy="56.563" r="3.3045"/>
  <circle cx="193.79" cy="67.719" r="2.7541"/>
  <circle cx="187.12" cy="68.168" r="2.7541"/>
  <circle cx="242.33" cy="52.595" r="5.8301"/>
  <circle cx="231.18" cy="54.991" r="3.8256"/>
  <circle cx="14.083" cy="227.77" r="3.1246"/>
  <circle cx="43.571" cy="216.76" r="10.184"/>
  <circle cx="63.371" cy="190.19" r="6.6823"/>
  <circle cx="92.991" cy="167.9" r="5.8676"/>
  <circle cx="112.7" cy="169.06" r="2.7868"/>
  <circle cx="77.948" cy="178.93" r="3.3525"/>
  <circle cx="67.313" cy="222.84" r="4.5051"/>
  <circle cx="26.392" cy="241.31" r="5.7629"/>
  <circle cx="73.223" cy="211.23" r="6.8832"/>
  <circle cx="124.23" cy="129.96" r="3.7964"/>
  <circle cx="142.8" cy="125.29" r="6.5063"/>
  <circle cx="207.91" cy="115.6" r="3.7761"/>
  <circle cx="211.06" cy="91.005" r="7.9819"/>
  <circle cx="270.88" cy="37.903" r="6.1542"/>
  <circle cx="260.31" cy="70.756" r="6.4507"/>
  <circle cx="235.39" cy="79.868" r="5.9183"/>
  <circle cx="245.69" cy="88.777" r="4.5032"/>
  <circle cx="312.96" cy="73.129" r="7.2548"/>
  <circle cx="239.77" cy="102.8" r="7.2151"/>
  <circle cx="213.6" cy="129.34" r="10.104"/>
  <circle cx="319.92" cy="90.743" r="9.9865"/>
  <circle cx="241.09" cy="144.05" r="3.1155"/>
  <circle cx="200.91" cy="152.92" r="3.0292"/>
  <circle cx="194.51" cy="157.74" r="3.1432"/>
  <circle cx="173.01" cy="171.7" r="3.2961"/>
  <circle cx="169.41" cy="181.46" r="6.0615"/>
  <circle cx="47.318" cy="253.57" r="7.412"/>
  <circle cx="140.93" cy="192.86" r="3.3656"/>
  <circle cx="132.99" cy="204.96" r="9.4525"/>
  <circle cx="230.26" cy="161.49" r="7.7461"/>
  <circle cx="289.83" cy="120.32" r="3.5463"/>
  <circle cx="301.5" cy="118.73" r="7.3516"/>
  <circle cx="287.26" cy="133.21" r="3.4351"/>
  <circle cx="76.103" cy="270.65" r="5.8809"/>
  <circle cx="75.02" cy="293.43" r="5.9759"/>
  <circle cx="71.164" cy="316.35" r="3.303"/>
  <circle cx="103.29" cy="277.76" r="2.226"/>
  <circle cx="113.02" cy="274.31" r="6.251"/>
  <circle cx="147.01" cy="225.38" r="5.7793"/>
  <circle cx="195.45" cy="210.65" r="3.4027"/>
  <circle cx="226.37" cy="190" r="4.7181"/>
  <circle cx="275.56" cy="146.83" r="3.8659"/>
  <circle cx="285.22" cy="142.59" r="5.0914"/>
  <circle cx="344.63" cy="140.23" r="6.9388"/>
  <circle cx="333.4" cy="139.48" r="2.851"/>
  <circle cx="325.91" cy="155.15" r="5.3863"/>
  <circle cx="287.57" cy="171.54" r="5.5809"/>
  <circle cx="317.06" cy="166.02" r="6.8955"/>
  <circle cx="204.8" cy="226.6" r="3.8659"/>
  <circle cx="150.15" cy="237.19" r="4.3446"/>
  <circle cx="261.6" cy="226.59" r="3.9122"/>
  <circle cx="315.61" cy="206.77" r="6.1867"/>
  <circle cx="347.96" cy="197.34" r="6.8799"/>
  <circle cx="321.56" cy="221.64" r="7.1456"/>
  <circle cx="311.09" cy="227.02" r="3.1064"/>
  <circle cx="321.83" cy="243.2" r="3.4906"/>
  <circle cx="288.74" cy="232.76" r="6.8955"/>
  <circle cx="293.49" cy="250.37" r="10.005"/>
  <circle cx="320.44" cy="275.77" r="5.0718"/>
  <circle cx="310.22" cy="273.87" r="4.1481"/>
  <circle cx="281.66" cy="274.81" r="6.7816"/>
  <circle cx="252.74" cy="249.26" r="4.519"/>
  <circle cx="272.79" cy="298.04" r="6.762"/>
  <circle cx="162.21" cy="258.08" r="3.2127"/>
  <circle cx="180.56" cy="264.92" r="5.9505"/>
  <circle cx="257.25" cy="275.88" r="6.0151"/>
  <circle cx="159.64" cy="284.55" r="5.6515"/>
  <circle cx="143.5" cy="285.71" r="2.1843"/>
  <circle cx="101.62" cy="294.86" r="4.8943"/>
  <circle cx="91.324" cy="311.24" r="3.6713"/>
  <circle cx="82.145" cy="319.2" r="6.6314"/>
  <circle cx="111.31" cy="320.37" r="5.7002"/>
  <circle cx="140.27" cy="344" r="5.4918"/>
  <circle cx="143.97" cy="334.31" r="2.4901"/>
  <circle cx="133.94" cy="331.43" r="6.8815"/>
  <circle cx="138.39" cy="295.13" r="6.9093"/>
  <circle cx="159.25" cy="302.68" r="4.4036"/>
  <circle cx="170.67" cy="328.08" r="6.8209"/>
  <circle cx="185.55" cy="328.87" r="6.8955"/>
  <circle cx="189.79" cy="302.48" r="9.925"/>
  <circle cx="211.28" cy="287.18" r="4.0891"/>
  <circle cx="234.64" cy="297.93" r="7.3401"/>
  <circle cx="274.36" cy="313.93" r="2.1041"/>
  <circle cx="265.39" cy="309.77" r="5.9643"/>
  <circle cx="270.32" cy="323.31" r="6.3689"/>
  <circle cx="225.05" cy="313.04" r="6.2839"/>
  <circle cx="199.87" cy="344.18" r="3.3226"/>
  <circle cx="210.5" cy="342.4" r="6.3296"/>
  <circle cx="221.84" cy="338.99" r="4.1284"/>
  <circle cx="205.73" cy="233.07" r="2.2538"/>
 </g>
 <g fill="#c67642">
  <circle cx="149.85" cy="288.26" r="2.6151"/>
  <circle cx="123.95" cy="274.38" r="3.1064"/>
  <circle cx="129.04" cy="288.81" r="2.7124"/>
  <circle cx="171.32" cy="258.67" r="3.6435"/>
  <circle cx="125.21" cy="234.03" r="2.5039"/>
  <circle cx="141.62" cy="240.75" r="2.6151"/>
  <circle cx="121.74" cy="311.78" r="2.6846"/>
  <circle cx="200.46" cy="275.83" r="2.9626"/>
  <circle cx="149.92" cy="14.55" r="6.3517"/>
  <circle cx="100.55" cy="32.159" r="4.2452"/>
  <circle cx="91.868" cy="34.753" r="3.6336"/>
  <circle cx="70.215" cy="50.212" r="6.4131"/>
  <circle cx="44.429" cy="76.614" r="5.5598"/>
  <circle cx="37.21" cy="84.154" r="4.066"/>
  <circle cx="21.815" cy="107.31" r="3.0655"/>
  <circle cx="25.933" cy="120.71" r="10.298"/>
  <circle cx="12.079" cy="143.71" r="3.6062"/>
  <circle cx="21.862" cy="140.53" r="5.9746"/>
  <circle cx="15.215" cy="189.75" r="10.079"/>
  <circle cx="42.348" cy="104.35" r="4.8203"/>
  <circle cx="47.113" cy="85.979" r="3.4862"/>
  <circle cx="73.954" cy="63.85" r="6.2656"/>
  <circle cx="75.595" cy="74.703" r="3.2638"/>
  <circle cx="95.212" cy="51.519" r="4.6154"/>
  <circle cx="124.22" cy="33.506" r="2.6443"/>
  <circle cx="143.83" cy="35.602" r="5.3957"/>
  <circle cx="171.48" cy="17.9" r="2.4052"/>
  <circle cx="196.37" cy="14.565" r="5.7961"/>
  <circle cx="212.25" cy="19.859" r="9.854"/>
  <circle cx="197.64" cy="30.288" r="6.7411"/>
  <circle cx="175.61" cy="27.324" r="7.1302"/>
  <circle cx="124.24" cy="52.982" r="6.5858"/>
  <circle cx="108.14" cy="60.129" r="9.8655"/>
  <circle cx="104.74" cy="73.141" r="2.8651"/>
  <circle cx="69.666" cy="109.43" r="4.0421"/>
  <circle cx="70.089" cy="97.202" r="7.3773"/>
  <circle cx="89.78" cy="85.373" r="3.9184"/>
  <circle cx="115.01" cy="78.774" r="7.649"/>
  <circle cx="135.23" cy="68.427" r="3.8388"/>
  <circle cx="145.34" cy="66.593" r="5.0573"/>
  <circle cx="150.55" cy="54.105" r="7.4899"/>
  <circle cx="184.09" cy="47.948" r="2.3219"/>
  <circle cx="189.04" cy="57.1" r="6.7824"/>
  <circle cx="152.15" cy="84.3" r="3.1902"/>
  <circle cx="54.736" cy="128.01" r="4.6535"/>
  <circle cx="52.036" cy="136.86" r="3.4306"/>
  <circle cx="61.513" cy="137.49" r="5.4318"/>
  <circle cx="63.472" cy="146.81" r="3.2638"/>
  <circle cx="63.842" cy="154.43" r="3.653"/>
  <circle cx="67.866" cy="168.62" r="3.2638"/>
  <circle cx="38.504" cy="156.44" r="6.1128"/>
  <circle cx="38.293" cy="168.04" r="4.2783"/>
  <circle cx="27.583" cy="204.96" r="7.5717"/>
  <circle cx="208.69" cy="50.012" r="2.6756"/>
  <circle cx="199.93" cy="57.724" r="2.5577"/>
  <circle cx="211.38" cy="63.713" r="2.5577"/>
  <circle cx="227.93" cy="44.622" r="6.4097"/>
  <circle cx="241.03" cy="39.53" r="6.0952"/>
  <circle cx="251.29" cy="27.851" r="7.2745"/>
  <circle cx="227.51" cy="62.59" r="3.1574"/>
  <circle cx="191.69" cy="77.769" r="5.0564"/>
  <circle cx="178.35" cy="79.781" r="7.2243"/>
  <circle cx="27.266" cy="226.98" r="7.0158"/>
  <circle cx="40.554" cy="201.89" r="4.3475"/>
  <circle cx="48.23" cy="180.07" r="4.1808"/>
  <circle cx="52.518" cy="188.65" r="3.7917"/>
  <circle cx="52.836" cy="200.09" r="6.5711"/>
  <circle cx="78.572" cy="168.25" r="5.7009"/>
  <circle cx="111.95" cy="127.71" r="7.5625"/>
  <circle cx="112.55" cy="156.93" r="7.3071"/>
  <circle cx="99.67" cy="177.66" r="3.9039"/>
  <circle cx="74.916" cy="187.6" r="3.8046"/>
  <circle cx="64.613" cy="202.27" r="3.8102"/>
  <circle cx="56.19" cy="232.38" r="7.3957"/>
  <circle cx="16.846" cy="236.31" r="3.6207"/>
  <circle cx="36.499" cy="247.3" r="3.5617"/>
  <circle cx="50.687" cy="242.56" r="3.1491"/>
  <circle cx="30.21" cy="258.21" r="7.9838"/>
  <circle cx="86.063" cy="204.81" r="5.9202"/>
  <circle cx="89.629" cy="188.71" r="9.8138"/>
  <circle cx="130.95" cy="123" r="4.7414"/>
  <circle cx="207.21" cy="104.06" r="4.0326"/>
  <circle cx="133.84" cy="134.31" r="4.8664"/>
  <circle cx="196.53" cy="109.98" r="7.2744"/>
  <circle cx="219.9" cy="74.117" r="9.7704"/>
  <circle cx="254.51" cy="58.341" r="5.9505"/>
  <circle cx="282.86" cy="43.782" r="5.7559"/>
  <circle cx="271.54" cy="69.697" r="3.2265"/>
  <circle cx="248.29" cy="76.685" r="5.1165"/>
  <circle cx="225.92" cy="90.443" r="5.3877"/>
  <circle cx="258.3" cy="86.475" r="6.9599"/>
  <circle cx="284.02" cy="70.555" r="7.4235"/>
  <circle cx="291.12" cy="55.879" r="7.1734"/>
  <circle cx="307.38" cy="62.46" r="3.4026"/>
  <circle cx="292.07" cy="78.164" r="2.9113"/>
  <circle cx="220.5" cy="98.206" r="2.5318"/>
  <circle cx="251.92" cy="97.491" r="4.1994"/>
  <circle cx="232.55" cy="113.32" r="4.1299"/>
  <circle cx="226.41" cy="120.27" r="4.12"/>
  <circle cx="196.42" cy="134.32" r="7.3529"/>
  <circle cx="194.66" cy="146.99" r="4.3461"/>
  <circle cx="286.57" cy="109.03" r="7.3401"/>
  <circle cx="302.98" cy="100.03" r="7.1734"/>
  <circle cx="333.1" cy="96.582" r="2.6755"/>
  <circle cx="180.34" cy="173.58" r="3.4072"/>
  <circle cx="152.84" cy="193.55" r="6.812"/>
  <circle cx="237.86" cy="152.06" r="3.8547"/>
  <circle cx="278.18" cy="133.06" r="3.7354"/>
  <circle cx="331.34" cy="107.2" r="6.8013"/>
  <circle cx="328.42" cy="121.76" r="6.762"/>
  <circle cx="292.9" cy="127.96" r="2.8375"/>
  <circle cx="224.05" cy="173.17" r="3.244"/>
  <circle cx="213.53" cy="182.03" r="9.199"/>
  <circle cx="200.95" cy="189.89" r="4.5215"/>
  <circle cx="144.58" cy="215.62" r="4.1855"/>
  <circle cx="125.75" cy="222.49" r="7.7848"/>
  <circle cx="41.066" cy="276.96" r="5.1504"/>
  <circle cx="54.212" cy="286.2" r="10.064"/>
  <circle cx="65.912" cy="277.44" r="3.5323"/>
  <circle cx="78.164" cy="282.62" r="4.6787"/>
  <circle cx="76.33" cy="306.78" r="5.9562"/>
  <circle cx="86.625" cy="289.67" r="5.3666"/>
  <circle cx="97.2" cy="284.84" r="5.3528"/>
  <circle cx="303.05" cy="138.16" r="9.8694"/>
  <circle cx="321.6" cy="139.07" r="7.4891"/>
  <circle cx="342.91" cy="125.93" r="6.5065"/>
  <circle cx="307.78" cy="154.95" r="6.0054"/>
  <circle cx="280.88" cy="154.15" r="3.2961"/>
  <circle cx="271.85" cy="177.48" r="7.1748"/>
  <circle cx="301.02" cy="167" r="6.2561"/>
  <circle cx="329.92" cy="164.21" r="2.9492"/>
  <circle cx="348.1" cy="175.18" r="6.8398"/>
  <circle cx="332.95" cy="174.26" r="6.6452"/>
  <circle cx="283.82" cy="182.7" r="4.2827"/>
  <circle cx="266.54" cy="188.34" r="3.9122"/>
  <circle cx="311.45" cy="185" r="6.423"/>
  <circle cx="340.06" cy="186.13" r="5.0522"/>
  <circle cx="350.54" cy="186.69" r="3.3226"/>
  <circle cx="315.77" cy="195.78" r="3.4211"/>
  <circle cx="161.2" cy="229.46" r="7.155"/>
  <circle cx="192.49" cy="234.98" r="9.9806"/>
  <circle cx="221.54" cy="241.55" r="4.2857"/>
  <circle cx="304.73" cy="206.55" r="3.3656"/>
  <circle cx="333.68" cy="208.18" r="9.6903"/>
  <circle cx="345.71" cy="217.03" r="4.0326"/>
  <circle cx="306.85" cy="217.32" r="6.3951"/>
  <circle cx="299.26" cy="226.09" r="3.6567"/>
  <circle cx="316.18" cy="233.88" r="4.0105"/>
  <circle cx="326.77" cy="234.61" r="5.3389"/>
  <circle cx="336.76" cy="236.01" r="2.1426"/>
  <circle cx="334.88" cy="243.78" r="5.2973"/>
  <circle cx="261.15" cy="239.3" r="7.155"/>
  <circle cx="276.31" cy="242.71" r="7.0765"/>
  <circle cx="312.99" cy="251.43" r="6.9586"/>
  <circle cx="327.18" cy="266.82" r="4.0105"/>
  <circle cx="317.6" cy="263.97" r="4.4036"/>
  <circle cx="309.18" cy="285.95" r="6.9586"/>
  <circle cx="297.27" cy="275.6" r="6.7816"/>
  <circle cx="283.61" cy="263.01" r="4.3384"/>
  <circle cx="263.65" cy="251.55" r="4.7831"/>
  <circle cx="274.06" cy="266.89" r="3.4209"/>
  <circle cx="270.39" cy="284.56" r="6.251"/>
  <circle cx="297.08" cy="305.56" r="4.3249"/>
  <circle cx="284.66" cy="309.06" r="7.214"/>
  <circle cx="219.29" cy="250.29" r="4.1874"/>
  <circle cx="197.06" cy="252.42" r="6.104"/>
  <circle cx="191.65" cy="262.11" r="4.1994"/>
  <circle cx="241.25" cy="280.32" r="9.8415"/>
  <circle cx="208.72" cy="277.81" r="4.5051"/>
  <circle cx="165.44" cy="269.56" r="6.8996"/>
  <circle cx="135.22" cy="279.06" r="7.3908"/>
  <circle cx="183.2" cy="278.33" r="5.0193"/>
  <circle cx="108.74" cy="285.83" r="4.6719"/>
  <circle cx="102.87" cy="308.32" r="6.8996"/>
  <circle cx="99.185" cy="320.02" r="4.3801"/>
  <circle cx="123.86" cy="321.18" r="6.0199"/>
  <circle cx="117.77" cy="334.24" r="7.8126"/>
  <circle cx="147.12" cy="307.51" r="6.9586"/>
  <circle cx="144.76" cy="322.11" r="6.8013"/>
  <circle cx="158.39" cy="313.2" r="4.4036"/>
  <circle cx="156.52" cy="340.58" r="10.044"/>
  <circle cx="170.85" cy="295.01" r="8.5308"/>
  <circle cx="188.86" cy="347.75" r="6.0151"/>
  <circle cx="180.37" cy="316.99" r="4.4218"/>
  <circle cx="197.21" cy="285.93" r="7.4106"/>
  <circle cx="223.86" cy="286.04" r="6.7424"/>
  <circle cx="261.85" cy="300.44" r="2.6151"/>
  <circle cx="252.26" cy="304" r="6.7426"/>
  <circle cx="240.46" cy="313.19" r="6.7981"/>
  <circle cx="250.7" cy="333.21" r="4.6198"/>
  <circle cx="206.01" cy="312.02" r="6.8209"/>
  <circle cx="191.94" cy="318.39" r="4.8109"/>
  <circle cx="196.2" cy="325.96" r="2.6151"/>
  <circle cx="214.78" cy="327.1" r="8.5881"/>
  <circle cx="201.85" cy="332.84" r="4.6198"/>
 </g>
 <g fill="#c3bc6e">
  <circle cx="80.205" cy="105.89" r="3.395"/>
  <circle cx="168.87" cy="92.091" r="6.2728"/>
  <circle cx="119.84" cy="114.49" r="5.858"/>
  <circle cx="111.55" cy="180" r="5.6671"/>
  <circle cx="136.32" cy="162.32" r="4.3965"/>
  <circle cx="136.39" cy="146.77" r="6.0131"/>
  <circle cx="215.36" cy="145.77" r="3.5588"/>
  <circle cx="193.65" cy="171.7" r="2.4919"/>
  <circle cx="176.81" cy="193.63" r="5.9359"/>
  <circle cx="215.89" cy="159.87" r="1.7994"/>
  <circle cx="176.66" cy="206.32" r="3.2954"/>
  <circle cx="113.4" cy="224.22" r="2.8215"/>
  <circle cx="103.13" cy="225.15" r="5.2038"/>
  <circle cx="158.43" cy="215.64" r="5.9185"/>
  <circle cx="186.49" cy="217.91" r="6.7259"/>
  <circle cx="202.22" cy="202.58" r="5.841"/>
  <circle cx="268.36" cy="199.93" r="6.3818"/>
  <circle cx="296.74" cy="189.29" r="6.2229"/>
  <circle cx="223.86" cy="217.88" r="5.1169"/>
  <circle cx="279.08" cy="217.14" r="3.7821"/>
  <circle cx="291.47" cy="218.82" r="5.5215"/>
 </g>
 <g fill="#86914b">
  <circle cx="85.821" cy="96.311" r="5.716"/>
  <circle cx="184.75" cy="94.34" r="7.3567"/>
  <circle cx="95.612" cy="202.05" r="3.2582"/>
  <circle cx="137.16" cy="112.12" r="7.1357"/>
  <circle cx="123.88" cy="168.8" r="7.07"/>
  <circle cx="141.99" cy="155.14" r="2.6229"/>
  <circle cx="154.98" cy="127.43" r="4.5321"/>
  <circle cx="104.71" cy="190.72" r="4.3356"/>
  <circle cx="187.66" cy="178.81" r="3.7647"/>
  <circle cx="203.24" cy="165.49" r="7.4935"/>
  <circle cx="188.9" cy="189.74" r="4.8129"/>
  <circle cx="165.2" cy="203.66" r="6.2916"/>
  <circle cx="94.037" cy="233.73" r="4.0441"/>
  <circle cx="88.506" cy="266.43" r="7.2818"/>
  <circle cx="212.29" cy="205.26" r="2.4906"/>
  <circle cx="223.15" cy="204.88" r="7.3146"/>
  <circle cx="298.85" cy="201.79" r="2.4906"/>
  <circle cx="285.03" cy="204.43" r="9.4161"/>
  <circle cx="209.62" cy="216.68" r="7.1887"/>
  <circle cx="197.95" cy="220.43" r="3.695"/>
  <circle cx="145.08" cy="90.102" r="2.065"/>
 </g>
 <g fill="#40aa70">
  <circle cx="88.216" cy="107.47" r="3.722"/>
  <circle cx="80.655" cy="119.52" r="10.09"/>
  <circle cx="71.952" cy="149.36" r="4.1382"/>
  <circle cx="84.925" cy="141.98" r="1.9861"/>
  <circle cx="110.89" cy="104.93" r="3.5457"/>
  <circle cx="118.94" cy="101.44" r="3.6013"/>
  <circle cx="109.68" cy="93.022" r="6.3251"/>
  <circle cx="121.94" cy="92.037" r="5.1066"/>
  <circle cx="82.305" cy="149.23" r="4.4876"/>
  <circle cx="153.37" cy="99.934" r="10.262"/>
  <circle cx="160" cy="116.1" r="5.6825"/>
  <circle cx="171.45" cy="119.96" r="4.3657"/>
  <circle cx="180.5" cy="114.46" r="4.4218"/>
  <circle cx="161.44" cy="135.85" r="3.7564"/>
  <circle cx="136.49" cy="172.03" r="4.3067"/>
  <circle cx="119.31" cy="193.37" r="7.3333"/>
  <circle cx="273.28" cy="89.62" r="7.1171"/>
  <circle cx="265.39" cy="105.62" r="10.258"/>
  <circle cx="243.19" cy="116.31" r="4.5885"/>
  <circle cx="257.32" cy="127.1" r="3.2405"/>
  <circle cx="276.31" cy="115.36" r="3.2454"/>
  <circle cx="232.25" cy="135.32" r="7.1456"/>
  <circle cx="243.53" cy="137.04" r="2.6151"/>
  <circle cx="250.43" cy="141.29" r="4.4078"/>
  <circle cx="229.34" cy="147.8" r="4.4078"/>
  <circle cx="220.42" cy="153.43" r="4.1888"/>
  <circle cx="96.882" cy="211.99" r="6.7634"/>
  <circle cx="261.75" cy="148.52" r="7.6478"/>
  <circle cx="268.97" cy="137.67" r="4.1102"/>
  <circle cx="243.42" cy="160.41" r="3.0876"/>
  <circle cx="84.566" cy="231.8" r="4.384"/>
  <circle cx="88.721" cy="246.75" r="9.418"/>
  <circle cx="111.6" cy="238.91" r="3.2961"/>
  <circle cx="99.727" cy="257.03" r="4.5804"/>
  <circle cx="109.01" cy="261.13" r="4.4036"/>
  <circle cx="256.02" cy="166.53" r="10.142"/>
  <circle cx="247.05" cy="179.89" r="3.7825"/>
  <circle cx="242.82" cy="192.23" r="7.155"/>
  <circle cx="249.5" cy="207.18" r="7.0371"/>
  <circle cx="236.85" cy="215.63" r="6.8996"/>
  <circle cx="235.13" cy="232.89" r="9.6874"/>
  <circle cx="248.01" cy="240.91" r="4.5608"/>
  <circle cx="243.55" cy="256" r="4.4822"/>
  <circle cx="262.98" cy="264.48" r="6.5963"/>
  <circle cx="204.21" cy="266.24" r="7.0961"/>
  <circle cx="235.64" cy="264.81" r="6.006"/>
 </g>
 <g fill="#8fb875">
  <circle cx="125.6" cy="98.844" r="1.547"/>
  <circle cx="118.48" cy="203.27" r="1.8806"/>
  <circle cx="214.17" cy="272.02" r="1.8266"/>
  <circle cx="99.275" cy="103.43" r="6.8797"/>
  <circle cx="95.853" cy="114.58" r="3.743"/>
  <circle cx="75.326" cy="137.15" r="7.6101"/>
  <circle cx="88.362" cy="133.98" r="4.5018"/>
  <circle cx="135.23" cy="94.969" r="7.6833"/>
  <circle cx="171.12" cy="105.87" r="7.5369"/>
  <circle cx="167.64" cy="127.96" r="4.3801"/>
  <circle cx="123.08" cy="181.13" r="4.2641"/>
  <circle cx="107.07" cy="201.19" r="6.3209"/>
  <circle cx="279.6" cy="99.24" r="3.1395"/>
  <circle cx="223.15" cy="141.88" r="2.8917"/>
  <circle cx="236.5" cy="123.19" r="3.7089"/>
  <circle cx="251.34" cy="108.94" r="3.6359"/>
  <circle cx="255.55" cy="117.52" r="5.2959"/>
  <circle cx="246.34" cy="127.69" r="6.0728"/>
  <circle cx="270.06" cy="124.66" r="7.5143"/>
  <circle cx="259.78" cy="134.89" r="4.7012"/>
  <circle cx="90.668" cy="223.08" r="4.584"/>
  <circle cx="249.13" cy="151.78" r="5.5126"/>
  <circle cx="79.138" cy="257.74" r="4.0253"/>
  <circle cx="102.84" cy="236.71" r="4.2197"/>
  <circle cx="106.28" cy="247.82" r="6.1715"/>
  <circle cx="240.84" cy="171.15" r="5.2634"/>
  <circle cx="257.61" cy="183.15" r="5.4891"/>
  <circle cx="256.28" cy="194.86" r="4.9642"/>
  <circle cx="237.6" cy="203.85" r="4.3762"/>
  <circle cx="250.25" cy="222.57" r="6.7287"/>
  <circle cx="251.08" cy="232.73" r="3.0347"/>
  <circle cx="242.3" cy="246.75" r="3.52"/>
  <circle cx="254.78" cy="258.84" r="2.5189"/>
  <circle cx="231.09" cy="251.45" r="7.5779"/>
  <circle cx="220.5" cy="263.86" r="7.5904"/>
  <circle cx="249.17" cy="266.58" r="6.0889"/>
 </g>
 <g fill="#b37357">
  <circle cx="96.594" cy="127.13" r="3.845"/>
  <circle cx="79.446" cy="157.73" r="3.5857"/>
  <circle cx="97.226" cy="152.39" r="7.1764"/>
  <circle cx="108.4" cy="146.03" r="3.0659"/>
  <circle cx="133.53" cy="181.28" r="3.6524"/>
  <circle cx="163.53" cy="150.88" r="8.6313"/>
  <circle cx="184.89" cy="142.4" r="4.9439"/>
  <circle cx="177.33" cy="149.07" r="3.2219"/>
  <circle cx="164.3" cy="167.48" r="5.9582"/>
  <circle cx="144.64" cy="182.86" r="5.7994"/>
  <circle cx="62.442" cy="247.2" r="6.46"/>
  <circle cx="79.961" cy="223.77" r="4.738"/>
  <circle cx="74.496" cy="249.11" r="3.8195"/>
  <circle cx="55.179" cy="268.05" r="6.8143"/>
  <circle cx="118.07" cy="264.22" r="3.127"/>
  <circle cx="123.17" cy="244.46" r="6.5406"/>
  <circle cx="134.15" cy="252.95" r="5.6406"/>
  <circle cx="169.99" cy="242.07" r="5.9053"/>
  <circle cx="146.93" cy="264.33" r="9.4535"/>
 </g>
 <g fill="#e7a670">
  <circle cx="109.15" cy="138.9" r="2.1626"/>
  <circle cx="194.51" cy="195.48" r="1.7145"/>
  <circle cx="118.83" cy="232.78" r="3.0377"/>
  <circle cx="175.01" cy="338.36" r="1.8998"/>
  <circle cx="26.079" cy="181.84" r="1.4087"/>
  <circle cx="169.45" cy="72.545" r="1.7195"/>
  <circle cx="133.71" cy="22.127" r="10.483"/>
  <circle cx="160.67" cy="9.7331" r="2.4763"/>
  <circle cx="59.627" cy="60.748" r="6.4419"/>
  <circle cx="51.099" cy="68.319" r="3.7328"/>
  <circle cx="32.022" cy="92.625" r="2.6351"/>
  <circle cx="16.247" cy="154.31" r="7.1814"/>
  <circle cx="10.498" cy="174.03" r="4.8877"/>
  <circle cx="26.788" cy="160.46" r="4.1497"/>
  <circle cx="37.905" cy="143.94" r="4.8501"/>
  <circle cx="31.122" cy="135.34" r="3.2288"/>
  <circle cx="46.107" cy="116.74" r="7.2209"/>
  <circle cx="35.466" cy="110.17" r="2.5486"/>
  <circle cx="41.13" cy="93.497" r="4.7694"/>
  <circle cx="53.73" cy="96.026" r="7.3824"/>
  <circle cx="84.807" cy="56.65" r="4.7694"/>
  <circle cx="106.67" cy="42.347" r="6.2494"/>
  <circle cx="131.93" cy="39.421" r="6.3259"/>
  <circle cx="168.84" cy="9.9591" r="4.51"/>
  <circle cx="226.77" cy="15.18" r="3.1654"/>
  <circle cx="236.2" cy="21.639" r="7.1927"/>
  <circle cx="225.77" cy="22.141" r="2.0564"/>
  <circle cx="187.95" cy="21.765" r="4.043"/>
  <circle cx="186.57" cy="30.077" r="2.292"/>
  <circle cx="170" cy="34.975" r="2.1752"/>
  <circle cx="162.01" cy="30.183" r="6.2027"/>
  <circle cx="141.39" cy="43.567" r="2.5361"/>
  <circle cx="114.95" cy="47.629" r="2.3752"/>
  <circle cx="87.083" cy="72.003" r="7.2209"/>
  <circle cx="52.248" cy="107.42" r="3.3658"/>
  <circle cx="100.56" cy="82.004" r="5.9302"/>
  <circle cx="126.34" cy="64.057" r="3.829"/>
  <circle cx="137.46" cy="60.245" r="2.5449"/>
  <circle cx="127.82" cy="83.513" r="3.4942"/>
  <circle cx="152.15" cy="74.454" r="4.1546"/>
  <circle cx="184.17" cy="38.757" r="5.3055"/>
  <circle cx="190.57" cy="45.066" r="2.2728"/>
  <circle cx="194.35" cy="41.472" r="2.603"/>
  <circle cx="200.79" cy="40.354" r="2.2728"/>
  <circle cx="234.08" cy="32.698" r="2.0564"/>
  <circle cx="241.66" cy="29.984" r="1.8294"/>
  <circle cx="199.67" cy="48.809" r="4.9143"/>
  <circle cx="176.38" cy="64.869" r="6.8128"/>
  <circle cx="161.56" cy="64.345" r="7.1429"/>
  <circle cx="162.78" cy="78.422" r="5.888"/>
  <circle cx="158.82" cy="87.032" r="2.5655"/>
  <circle cx="65.589" cy="125.63" r="5.2948"/>
  <circle cx="67.283" cy="177.57" r="5.4115"/>
  <circle cx="53.667" cy="165.41" r="9.9205"/>
  <circle cx="32.593" cy="171.58" r="1.1781"/>
  <circle cx="43.636" cy="173.64" r="1.467"/>
  <circle cx="35.775" cy="180.42" r="6.9562"/>
  <circle cx="8.7466" cy="202.91" r="3.3655"/>
  <circle cx="27.464" cy="216.39" r="2.086"/>
  <circle cx="218.42" cy="54.355" r="6.9778"/>
  <circle cx="262.77" cy="31.556" r="3.3152"/>
  <circle cx="256.78" cy="42.937" r="7.9377"/>
  <circle cx="202.8" cy="66.426" r="5.0202"/>
  <circle cx="204.19" cy="77.619" r="5.1028"/>
  <circle cx="14.771" cy="216.13" r="7.5417"/>
  <circle cx="43.042" cy="191.25" r="4.5649"/>
  <circle cx="57.177" cy="180.02" r="3.3976"/>
  <circle cx="120.34" cy="142.01" r="8.1058"/>
  <circle cx="101.77" cy="162.66" r="2.2657"/>
  <circle cx="105.25" cy="170.09" r="3.8134"/>
  <circle cx="85.323" cy="175.55" r="2.7567"/>
  <circle cx="75.44" cy="198.14" r="5.46"/>
  <circle cx="59.504" cy="211.81" r="4.6282"/>
  <circle cx="57.572" cy="220.85" r="2.6291"/>
  <circle cx="40.467" cy="235.6" r="7.3099"/>
  <circle cx="20.851" cy="250.22" r="3.4509"/>
  <circle cx="198.8" cy="97.088" r="4.1175"/>
  <circle cx="192.83" cy="121.63" r="3.1395"/>
  <circle cx="201.18" cy="121.79" r="4.1918"/>
  <circle cx="239.74" cy="65.872" r="7.0505"/>
  <circle cx="250.41" cy="66.984" r="2.4103"/>
  <circle cx="271.4" cy="55.404" r="10.362"/>
  <circle cx="236.7" cy="90.63" r="3.7998"/>
  <circle cx="270.83" cy="77.419" r="3.7379"/>
  <circle cx="301.66" cy="58.765" r="1.9579"/>
  <circle cx="299.18" cy="69.086" r="5.884"/>
  <circle cx="278.4" cy="79.213" r="1.9013"/>
  <circle cx="288.93" cy="93.176" r="6.7441"/>
  <circle cx="301.91" cy="83.855" r="7.473"/>
  <circle cx="228.34" cy="100.48" r="3.9132"/>
  <circle cx="219.05" cy="109.07" r="7.7619"/>
  <circle cx="228.37" cy="126.29" r="1.1996"/>
  <circle cx="205.56" cy="144.16" r="4.6252"/>
  <circle cx="306.16" cy="109.11" r="1.6661"/>
  <circle cx="298.19" cy="109.12" r="2.06"/>
  <circle cx="187.29" cy="164.45" r="5.2856"/>
  <circle cx="33.205" cy="271.58" r="3.4799"/>
  <circle cx="41.74" cy="266.51" r="4.2641"/>
  <circle cx="144.9" cy="199.85" r="1.5786"/>
  <circle cx="164.94" cy="191.67" r="3.7673"/>
  <circle cx="217.27" cy="166.9" r="4.522"/>
  <circle cx="282.41" cy="124.45" r="3.9634"/>
  <circle cx="316.06" cy="110.08" r="7.4715"/>
  <circle cx="339.2" cy="115.67" r="2.8697"/>
  <circle cx="315.09" cy="125.11" r="5.8826"/>
  <circle cx="276.86" cy="140.12" r="1.418"/>
  <circle cx="149.51" cy="206.95" r="5.139"/>
  <circle cx="138.1" cy="221.49" r="3.0815"/>
  <circle cx="116.09" cy="253.94" r="3.757"/>
  <circle cx="96.882" cy="275.33" r="2.7459"/>
  <circle cx="88.16" cy="279.1" r="4.8714"/>
  <circle cx="68.903" cy="285.45" r="3.5776"/>
  <circle cx="62.741" cy="301.2" r="6.7081"/>
  <circle cx="66.073" cy="310.64" r="2.7459"/>
  <circle cx="88.946" cy="301.88" r="5.3048"/>
  <circle cx="135.63" cy="234.31" r="5.7587"/>
  <circle cx="213.38" cy="196.35" r="3.9015"/>
  <circle cx="231.84" cy="179.31" r="5.3873"/>
  <circle cx="272.25" cy="159.54" r="6.102"/>
  <circle cx="332.54" cy="131.66" r="2.7459"/>
  <circle cx="332.46" cy="147.44" r="3.1793"/>
  <circle cx="315.05" cy="147.12" r="2.4983"/>
  <circle cx="317.64" cy="153.15" r="1.8379"/>
  <circle cx="293.35" cy="153.93" r="7.8239"/>
  <circle cx="282.73" cy="161.64" r="2.3811"/>
  <circle cx="289.88" cy="163.52" r="1.2721"/>
  <circle cx="278.67" cy="167.41" r="2.3538"/>
  <circle cx="239.85" cy="181.11" r="1.9579"/>
  <circle cx="344.54" cy="158.34" r="10.45"/>
  <circle cx="320.98" cy="177.94" r="3.7381"/>
  <circle cx="301.39" cy="178.12" r="3.6539"/>
  <circle cx="293.75" cy="179.5" r="2.4157"/>
  <circle cx="276.12" cy="189.68" r="4.6856"/>
  <circle cx="233.37" cy="196.7" r="2.1061"/>
  <circle cx="285.19" cy="190.1" r="2.0892"/>
  <circle cx="326.92" cy="188.43" r="7.1001"/>
  <circle cx="337.33" cy="194.79" r="2.7253"/>
  <circle cx="323.85" cy="198.96" r="3.0377"/>
  <circle cx="307.11" cy="197.05" r="3.7965"/>
  <circle cx="176.09" cy="228.67" r="6.1095"/>
  <circle cx="144.87" cy="248.8" r="4.4678"/>
  <circle cx="217.16" cy="230.11" r="7.2287"/>
  <circle cx="208.81" cy="243.7" r="7.0689"/>
  <circle cx="283.66" cy="223.57" r="1.8604"/>
  <circle cx="349.12" cy="209.6" r="2.9109"/>
  <circle cx="338.29" cy="226.01" r="7.3569"/>
  <circle cx="314.6" cy="241.31" r="2.1622"/>
  <circle cx="304.53" cy="236.57" r="7.2239"/>
  <circle cx="274.62" cy="228.43" r="6.9143"/>
  <circle cx="327.82" cy="255.05" r="7.2858"/>
  <circle cx="305.54" cy="263.97" r="6.1921"/>
  <circle cx="294.73" cy="265.23" r="2.7459"/>
  <circle cx="289.64" cy="268.6" r="1.7553"/>
  <circle cx="305.28" cy="298.81" r="4.8094"/>
  <circle cx="290.2" cy="292.26" r="10.34"/>
  <circle cx="275.03" cy="256.8" r="5.9415"/>
  <circle cx="268.48" cy="274.16" r="3.6745"/>
  <circle cx="182.99" cy="250.5" r="6.9184"/>
  <circle cx="193" cy="272.41" r="5.0514"/>
  <circle cx="257.98" cy="290.59" r="7.5904"/>
  <circle cx="227.01" cy="274.74" r="4.6856"/>
  <circle cx="218.36" cy="276.75" r="3.2128"/>
  <circle cx="148.74" cy="279.9" r="4.2635"/>
  <circle cx="156.12" cy="276.51" r="2.5124"/>
  <circle cx="172.76" cy="281.85" r="5.0984"/>
  <circle cx="122.03" cy="283.42" r="4.8179"/>
  <circle cx="119.46" cy="298.7" r="10.237"/>
  <circle cx="91.297" cy="329.88" r="5.4891"/>
  <circle cx="103.63" cy="331.73" r="5.9561"/>
  <circle cx="128.86" cy="343.34" r="3.4901"/>
  <circle cx="134.44" cy="321.22" r="2.921"/>
  <circle cx="133.28" cy="310.37" r="6.7149"/>
  <circle cx="152.47" cy="296.49" r="4.438"/>
  <circle cx="158.16" cy="323.72" r="5.3666"/>
  <circle cx="170.22" cy="311.37" r="6.3572"/>
  <circle cx="165.95" cy="319.81" r="2.5807"/>
  <circle cx="174.26" cy="348.43" r="7.6366"/>
  <circle cx="182.42" cy="340.06" r="2.9523"/>
  <circle cx="184.08" cy="288.61" r="5.0514"/>
  <circle cx="207.02" cy="298.04" r="6.6461"/>
  <circle cx="219.82" cy="300.32" r="5.6351"/>
  <circle cx="246.76" cy="294.38" r="3.3879"/>
  <circle cx="282.36" cy="321.08" r="3.6359"/>
  <circle cx="254.35" cy="320.54" r="8.4002"/>
  <circle cx="260.66" cy="331.94" r="3.5713"/>
  <circle cx="235.32" cy="331.07" r="10.48"/>
  <circle cx="215.74" cy="315.86" r="1.6522"/>
  <circle cx="203.27" cy="324.11" r="3.0347"/>
  <circle cx="193.43" cy="338.82" r="3.5301"/>
  <circle cx="96.073" cy="41.411" r="3.154"/>
 </g>
 <g fill="#d59978">
  <circle cx="179.26" cy="239.32" r="2.087"/>
  <circle cx="90.987" cy="142.72" r="1.9861"/>
  <circle cx="86.487" cy="160.48" r="2.7922"/>
  <circle cx="99.45" cy="138.23" r="5.951"/>
  <circle cx="149.44" cy="157.81" r="2.8917"/>
  <circle cx="148.65" cy="167.77" r="6.6258"/>
  <circle cx="131.73" cy="190.54" r="4.2478"/>
  <circle cx="172.58" cy="138.77" r="5.1518"/>
  <circle cx="181.93" cy="128.91" r="7.1761"/>
  <circle cx="188.45" cy="118.15" r="1.8894"/>
  <circle cx="185.16" cy="153.85" r="4.7552"/>
  <circle cx="175.34" cy="159.38" r="5.1722"/>
  <circle cx="178.33" cy="167.4" r="2.226"/>
  <circle cx="156.18" cy="180.19" r="5.7281"/>
  <circle cx="58.548" cy="257.82" r="2.1645"/>
  <circle cx="72.437" cy="236.2" r="7.2154"/>
  <circle cx="85.24" cy="215.79" r="3.442"/>
  <circle cx="68.169" cy="260.23" r="5.9759"/>
  <circle cx="65.541" cy="269.79" r="2.1705"/>
  <circle cx="123.39" cy="255.68" r="2.6151"/>
  <circle cx="134.29" cy="243.29" r="2.0593"/>
  <circle cx="156.7" cy="249.17" r="5.7597"/>
  <circle cx="158.24" cy="239.88" r="2.222"/>
  <circle cx="166.45" cy="252.26" r="2.6151"/>
  <circle cx="128.22" cy="265.28" r="6.2117"/>
 </g>
</svg>